<?xml version="1.0" encoding="UTF-8"?><svg id="Lager_1" xmlns="http://www.w3.org/2000/svg" viewBox="0 0 1000 1000"><defs><style>.cls-1{font-family:METROPOLISPERSONALUSE-Regular, 'METROPOLIS PERSONAL USE';font-size:165px;}.cls-1,.cls-2,.cls-3{stroke:#fff;stroke-miterlimit:10;}.cls-1,.cls-3{fill:#fff;}.cls-2{fill:none;stroke-width:13px;}</style></defs><rect class="cls-3" x="99.68" y="623.15" width="781.45" height="14.52"/><rect class="cls-3" x="99.68" y="567.91" width="781.45" height="14.52"/><path class="cls-2" d="M142.47,575.17c83.22-28.04,136.43-78.68,159.65-151.91,21.11,68.16,71.06,120.35,158.23,151.91H142.47Z"/><path class="cls-2" d="M325.52,567.91c86.33-48.56,141.54-136.24,165.62-263.06,21.9,118.04,73.72,208.41,164.15,263.06H325.52Z"/><path class="cls-2" d="M514.84,575.17c85.64-28.04,140.41-78.68,164.3-151.91,21.73,68.16,73.13,120.35,162.84,151.91h-327.15Z"/><text class="cls-1" transform="translate(133.3 771.64)"><tspan x="0" y="0">KAROSHI</tspan></text><path class="cls-3" d="M490.41,61.35c-103.56,0-187.51,83.95-187.51,187.51s83.95,187.51,187.51,187.51,187.51-83.95,187.51-187.51S593.97,61.35,490.41,61.35Zm0,370.11c-100.85,0-182.6-81.75-182.6-182.6s81.75-182.6,182.6-182.6,182.6,81.75,182.6,182.6-81.75,182.6-182.6,182.6Z"/><text/></svg>